<svg id="visual" viewBox="0 0 900 300" width="900" height="300" xmlns="http://www.w3.org/2000/svg" xmlns:xlink="http://www.w3.org/1999/xlink" version="1.1"><rect x="0" y="0" width="900" height="300" fill="#FFFFFF"></rect><path d="M0 40L10.7 40.5C21.3 41 42.7 42 64.2 42.7C85.7 43.3 107.3 43.7 128.8 44.2C150.3 44.7 171.7 45.3 193 45.3C214.3 45.3 235.7 44.7 257 44.5C278.3 44.3 299.7 44.7 321.2 43.2C342.7 41.7 364.3 38.3 385.8 37.2C407.3 36 428.7 37 450 37.7C471.3 38.3 492.7 38.7 514.2 37.8C535.7 37 557.3 35 578.8 34.2C600.3 33.3 621.7 33.7 643 34.8C664.3 36 685.7 38 707 39.7C728.3 41.3 749.7 42.7 771.2 43C792.7 43.3 814.3 42.7 835.8 41C857.3 39.3 878.7 36.7 889.3 35.3L900 34L900 0L889.3 0C878.7 0 857.3 0 835.8 0C814.3 0 792.7 0 771.2 0C749.7 0 728.3 0 707 0C685.7 0 664.3 0 643 0C621.7 0 600.3 0 578.8 0C557.3 0 535.7 0 514.2 0C492.7 0 471.3 0 450 0C428.7 0 407.3 0 385.8 0C364.3 0 342.7 0 321.2 0C299.7 0 278.3 0 257 0C235.7 0 214.3 0 193 0C171.7 0 150.3 0 128.8 0C107.3 0 85.7 0 64.2 0C42.7 0 21.3 0 10.7 0L0 0Z" fill="#ffffff"></path><path d="M0 32L10.7 32.5C21.3 33 42.7 34 64.2 34.7C85.7 35.3 107.3 35.7 128.8 35C150.3 34.3 171.7 32.7 193 32.7C214.3 32.7 235.7 34.3 257 35.3C278.3 36.3 299.7 36.7 321.2 36.5C342.7 36.3 364.3 35.7 385.8 35C407.3 34.3 428.7 33.7 450 34.3C471.3 35 492.7 37 514.2 36.3C535.7 35.7 557.3 32.3 578.8 30.8C600.3 29.3 621.7 29.7 643 29.7C664.3 29.7 685.7 29.3 707 29.7C728.3 30 749.7 31 771.2 33C792.7 35 814.3 38 835.8 38.8C857.3 39.7 878.7 38.3 889.3 37.7L900 37L900 0L889.3 0C878.7 0 857.3 0 835.8 0C814.3 0 792.7 0 771.2 0C749.7 0 728.3 0 707 0C685.7 0 664.3 0 643 0C621.7 0 600.3 0 578.8 0C557.3 0 535.7 0 514.2 0C492.7 0 471.3 0 450 0C428.7 0 407.3 0 385.8 0C364.3 0 342.7 0 321.2 0C299.7 0 278.3 0 257 0C235.7 0 214.3 0 193 0C171.7 0 150.3 0 128.8 0C107.3 0 85.7 0 64.2 0C42.7 0 21.3 0 10.7 0L0 0Z" fill="#f0f0ee"></path><path d="M0 30L10.7 28.8C21.3 27.7 42.7 25.3 64.2 26.2C85.7 27 107.3 31 128.8 31.7C150.3 32.3 171.7 29.7 193 27.7C214.3 25.7 235.7 24.3 257 24.8C278.3 25.3 299.7 27.7 321.2 29.2C342.7 30.7 364.3 31.3 385.8 31.5C407.3 31.7 428.7 31.3 450 30.5C471.3 29.7 492.7 28.3 514.2 27.2C535.7 26 557.3 25 578.8 25.5C600.3 26 621.7 28 643 29.7C664.3 31.3 685.7 32.7 707 32.8C728.3 33 749.7 32 771.2 32C792.7 32 814.3 33 835.8 32.3C857.3 31.7 878.7 29.3 889.3 28.2L900 27L900 0L889.3 0C878.7 0 857.3 0 835.8 0C814.3 0 792.7 0 771.2 0C749.7 0 728.3 0 707 0C685.7 0 664.3 0 643 0C621.7 0 600.3 0 578.8 0C557.3 0 535.7 0 514.2 0C492.7 0 471.3 0 450 0C428.7 0 407.3 0 385.8 0C364.3 0 342.7 0 321.2 0C299.7 0 278.3 0 257 0C235.7 0 214.3 0 193 0C171.7 0 150.3 0 128.8 0C107.3 0 85.7 0 64.2 0C42.7 0 21.3 0 10.7 0L0 0Z" fill="#e2e1dd"></path><path d="M0 27L10.7 26.3C21.3 25.7 42.7 24.3 64.2 23.7C85.7 23 107.3 23 128.8 23.7C150.3 24.3 171.7 25.7 193 25.7C214.3 25.7 235.7 24.3 257 24.5C278.3 24.7 299.7 26.3 321.2 26.8C342.7 27.3 364.3 26.7 385.8 26.5C407.3 26.3 428.7 26.7 450 25.5C471.3 24.3 492.7 21.7 514.2 21.8C535.7 22 557.3 25 578.8 26.3C600.3 27.7 621.7 27.3 643 25.8C664.3 24.3 685.7 21.7 707 20.3C728.3 19 749.7 19 771.2 20.7C792.7 22.3 814.3 25.7 835.8 26.8C857.3 28 878.7 27 889.3 26.5L900 26L900 0L889.3 0C878.7 0 857.3 0 835.8 0C814.3 0 792.7 0 771.2 0C749.7 0 728.3 0 707 0C685.7 0 664.3 0 643 0C621.7 0 600.3 0 578.8 0C557.3 0 535.7 0 514.2 0C492.7 0 471.3 0 450 0C428.7 0 407.3 0 385.8 0C364.3 0 342.7 0 321.2 0C299.7 0 278.3 0 257 0C235.7 0 214.3 0 193 0C171.7 0 150.3 0 128.8 0C107.3 0 85.7 0 64.2 0C42.7 0 21.3 0 10.7 0L0 0Z" fill="#d3d3cd"></path><path d="M0 17L10.7 17.5C21.3 18 42.7 19 64.2 19.7C85.7 20.3 107.3 20.7 128.8 20C150.3 19.3 171.7 17.7 193 17.3C214.3 17 235.7 18 257 18.8C278.3 19.7 299.7 20.3 321.2 19.7C342.7 19 364.3 17 385.8 16.3C407.3 15.7 428.7 16.3 450 17C471.3 17.7 492.7 18.3 514.2 19.2C535.7 20 557.3 21 578.8 21C600.3 21 621.7 20 643 18.7C664.3 17.3 685.7 15.7 707 15C728.3 14.3 749.7 14.7 771.2 15.7C792.7 16.7 814.3 18.3 835.8 19C857.3 19.7 878.7 19.3 889.3 19.2L900 19L900 0L889.3 0C878.7 0 857.3 0 835.8 0C814.3 0 792.7 0 771.2 0C749.7 0 728.3 0 707 0C685.7 0 664.3 0 643 0C621.7 0 600.3 0 578.8 0C557.3 0 535.7 0 514.2 0C492.7 0 471.3 0 450 0C428.7 0 407.3 0 385.8 0C364.3 0 342.7 0 321.2 0C299.7 0 278.3 0 257 0C235.7 0 214.3 0 193 0C171.7 0 150.3 0 128.8 0C107.3 0 85.7 0 64.2 0C42.7 0 21.3 0 10.7 0L0 0Z" fill="#c4c4bd"></path><path d="M0 16L10.7 15.8C21.3 15.7 42.7 15.3 64.2 14.2C85.7 13 107.3 11 128.8 10.2C150.3 9.3 171.7 9.7 193 9.8C214.3 10 235.7 10 257 9.8C278.3 9.7 299.7 9.3 321.2 9.8C342.7 10.3 364.3 11.7 385.8 11.7C407.3 11.7 428.7 10.3 450 9.8C471.3 9.3 492.7 9.7 514.2 9.8C535.7 10 557.3 10 578.8 9.8C600.3 9.7 621.7 9.3 643 10.3C664.3 11.3 685.7 13.7 707 14.3C728.3 15 749.7 14 771.2 12.8C792.7 11.7 814.3 10.3 835.8 10.7C857.3 11 878.7 13 889.3 14L900 15L900 0L889.3 0C878.7 0 857.3 0 835.8 0C814.3 0 792.7 0 771.2 0C749.7 0 728.3 0 707 0C685.7 0 664.3 0 643 0C621.7 0 600.3 0 578.8 0C557.3 0 535.7 0 514.2 0C492.7 0 471.3 0 450 0C428.7 0 407.3 0 385.8 0C364.3 0 342.7 0 321.2 0C299.7 0 278.3 0 257 0C235.7 0 214.3 0 193 0C171.7 0 150.3 0 128.8 0C107.3 0 85.7 0 64.2 0C42.7 0 21.3 0 10.7 0L0 0Z" fill="#b6b6ad"></path><path d="M0 9L10.7 8.7C21.3 8.3 42.7 7.7 64.2 7.2C85.7 6.7 107.3 6.3 128.8 6.2C150.3 6 171.7 6 193 6C214.3 6 235.7 6 257 5.7C278.3 5.3 299.7 4.7 321.2 4.8C342.7 5 364.3 6 385.8 6C407.3 6 428.7 5 450 4.8C471.3 4.7 492.7 5.3 514.2 5.8C535.7 6.3 557.3 6.7 578.8 7.2C600.3 7.7 621.7 8.3 643 7.8C664.3 7.3 685.7 5.7 707 5.5C728.3 5.3 749.7 6.7 771.2 7.2C792.7 7.7 814.3 7.3 835.8 7C857.3 6.7 878.7 6.3 889.3 6.2L900 6L900 0L889.3 0C878.7 0 857.3 0 835.8 0C814.3 0 792.7 0 771.2 0C749.7 0 728.3 0 707 0C685.7 0 664.3 0 643 0C621.7 0 600.3 0 578.8 0C557.3 0 535.7 0 514.2 0C492.7 0 471.3 0 450 0C428.7 0 407.3 0 385.8 0C364.3 0 342.7 0 321.2 0C299.7 0 278.3 0 257 0C235.7 0 214.3 0 193 0C171.7 0 150.3 0 128.8 0C107.3 0 85.7 0 64.2 0C42.7 0 21.3 0 10.7 0L0 0Z" fill="#a8a89e"></path></svg>